<svg xmlns="http://www.w3.org/2000/svg" viewBox="0 0 1510 452" width="1510" height="452"><defs>
<linearGradient id="gBody" x1="0" y1="0" x2="0" y2="1"><stop offset="0" stop-color="#f4f7fa"/><stop offset="1" stop-color="#cdd7e2"/></linearGradient>
<linearGradient id="gBodyH" x1="0" y1="0" x2="1" y2="0"><stop offset="0" stop-color="#cdd7e2"/><stop offset="0.35" stop-color="#f4f7fa"/><stop offset="1" stop-color="#cdd7e2"/></linearGradient>
<linearGradient id="gSteel" x1="0" y1="0" x2="1" y2="0"><stop offset="0" stop-color="#9aa6b4"/><stop offset="0.4" stop-color="#dfe5ec"/><stop offset="1" stop-color="#9aa6b4"/></linearGradient>
<linearGradient id="gRam" x1="0" y1="0" x2="1" y2="0"><stop offset="0" stop-color="#8896a6"/><stop offset="0.45" stop-color="#c5ced8"/><stop offset="1" stop-color="#8896a6"/></linearGradient>
<linearGradient id="gDark" x1="0" y1="0" x2="1" y2="0"><stop offset="0" stop-color="#27303a"/><stop offset="0.5" stop-color="#4b5866"/><stop offset="1" stop-color="#27303a"/></linearGradient>
<linearGradient id="gOven" x1="0" y1="0" x2="0" y2="1"><stop offset="0" stop-color="#fbf6e2"/><stop offset="1" stop-color="#efe5bd"/></linearGradient>
<linearGradient id="gYellow" x1="0" y1="0" x2="1" y2="0"><stop offset="0" stop-color="#e6b422"/><stop offset="0.45" stop-color="#ffe27a"/><stop offset="1" stop-color="#e6b422"/></linearGradient>
<linearGradient id="gGreen" x1="0" y1="0" x2="0" y2="1"><stop offset="0" stop-color="#6fcf97"/><stop offset="1" stop-color="#2f9e5f"/></linearGradient>
<linearGradient id="gBlue" x1="0" y1="0" x2="1" y2="0"><stop offset="0" stop-color="#1d5f98"/><stop offset="0.45" stop-color="#2f7fc1"/><stop offset="1" stop-color="#1d5f98"/></linearGradient>
<radialGradient id="gFab" cx="0.38" cy="0.35" r="0.8"><stop offset="0" stop-color="#ffb36b"/><stop offset="1" stop-color="#ec7a1e"/></radialGradient>
</defs><line x1="26" y1="447" x2="1500" y2="447" stroke="#3c4754" stroke-width="4" stroke-linecap="butt"/><polyline points="130,350 202,340 226,432 274,432 298,340" fill="none" stroke="#f08a3c" stroke-width="1.8" stroke-linejoin="round" stroke-linecap="round"/><polyline points="298,340 334,432 398,432 456,432" fill="none" stroke="#f08a3c" stroke-width="1.8" stroke-linejoin="round" stroke-linecap="round"/><polyline points="456,432 458,70 489,66 520,70 524,305 556,311 560,436" fill="none" stroke="#f08a3c" stroke-width="1.8" stroke-linejoin="round" stroke-linecap="round"/><polyline points="560,436 636,436 676,436 690,334 712,334" fill="none" stroke="#f08a3c" stroke-width="1.8" stroke-linejoin="round" stroke-linecap="round"/><polyline points="728,304 775,302 1108,302 1160,296 1190,286 1245,300 1300,300" fill="none" stroke="#f08a3c" stroke-width="1.8" stroke-linejoin="round" stroke-linecap="round"/><polyline points="1300,300 1335,304 1380,330 1425,342" fill="none" stroke="#f08a3c" stroke-width="1.8" stroke-linejoin="round" stroke-linecap="round"/><g transform="translate(78 447) scale(0.9 0.9)"><polygon points="-46,0 -34,-14 34,-14 46,0" fill="url(#gDark)" stroke="#27303a" stroke-width="1" stroke-linejoin="round"/><rect x="-13" y="-170" width="26" height="158" rx="1.5" fill="url(#gBodyH)" stroke="#7d8b9b" stroke-width="1"/><rect x="-24" y="-178" width="48" height="56" rx="1.5" fill="url(#gBody)" stroke="#7d8b9b" stroke-width="1"/><rect x="-52" y="-176" width="34" height="48" rx="1.5" fill="url(#gBody)" stroke="#7d8b9b" stroke-width="1"/><rect x="-47" y="-171" width="24" height="28" rx="1" fill="#b9d4ea" stroke="#7d8b9b" stroke-width="1"/><circle cx="-35" cy="-134" r="3" fill="#2f7fc1" stroke="#7d8b9b" stroke-width="1"/><rect x="-46" y="-100" width="92" height="30" rx="6" fill="url(#gBodyH)" stroke="#7d8b9b" stroke-width="1"/><rect x="-58" y="-97" width="14" height="24" rx="7" fill="url(#gSteel)" stroke="#7d8b9b" stroke-width="1"/><rect x="44" y="-97" width="14" height="24" rx="7" fill="url(#gSteel)" stroke="#7d8b9b" stroke-width="1"/><circle cx="61.9" cy="-85" r="34" fill="url(#gFab)" stroke="#b85a0c" stroke-width="1"/><circle cx="61.9" cy="-85" r="21.08" fill="none" stroke="#b85a0c" stroke-opacity="0.35" stroke-width="1"/><circle cx="61.9" cy="-85" r="10.2" fill="url(#gSteel)" stroke="#7d8b9b" stroke-width="1"/><path d="M 43.199999999999996 -90.1 A 19.040000000000003 19.040000000000003 0 0 1 68.7 -102.68" fill="none" stroke="#b85a0c" stroke-width="1.4" marker-end="url(#none)"/></g><g transform="translate(250 447) scale(1 1)"><polygon points="-42,0 -32,-12 32,-12 42,0" fill="url(#gDark)" stroke="#27303a" stroke-width="1" stroke-linejoin="round"/><rect x="-9" y="-187" width="18" height="177" rx="1.5" fill="url(#gBodyH)" stroke="#7d8b9b" stroke-width="1"/><rect x="-16" y="-205" width="32" height="34" rx="1.5" fill="url(#gBody)" stroke="#7d8b9b" stroke-width="1"/><rect x="-5" y="-231" width="10" height="28" rx="1.5" fill="url(#gRam)" stroke="#7d8b9b" stroke-width="1"/><rect x="-34" y="-117" width="68" height="14" rx="1.5" fill="url(#gBody)" stroke="#7d8b9b" stroke-width="1"/><rect x="-46" y="-105" width="92" height="10" rx="2" fill="url(#gSteel)" stroke="#7d8b9b" stroke-width="1"/><circle cx="11" cy="-197" r="2.5" fill="#d64545" stroke="#d64545" stroke-width="1"/><rect x="-50" y="-121" width="5" height="40" rx="1.5" fill="url(#gSteel)" stroke="#7d8b9b" stroke-width="1"/><rect x="45" y="-121" width="5" height="40" rx="1.5" fill="url(#gSteel)" stroke="#7d8b9b" stroke-width="1"/><polyline points="-48,-107 -24,-14 -5,-14" fill="none" stroke="#f08a3c" stroke-width="2" stroke-linejoin="round" stroke-linecap="round"/><polyline points="5,-14 24,-14 48,-107" fill="none" stroke="#f08a3c" stroke-width="2" stroke-linejoin="round" stroke-linecap="round"/><circle cx="-48" cy="-107" r="5" fill="url(#gFab)" stroke="#b85a0c" stroke-width="0.9"/><circle cx="-48" cy="-107" r="1.4000000000000001" fill="#4b5866"/><circle cx="48" cy="-107" r="5" fill="url(#gFab)" stroke="#b85a0c" stroke-width="0.9"/><circle cx="48" cy="-107" r="1.4000000000000001" fill="#4b5866"/><circle cx="-24" cy="-14" r="5.5" fill="url(#gFab)" stroke="#b85a0c" stroke-width="0.9"/><circle cx="-24" cy="-14" r="1.54" fill="#4b5866"/><circle cx="24" cy="-14" r="5.5" fill="url(#gFab)" stroke="#b85a0c" stroke-width="0.9"/><circle cx="24" cy="-14" r="1.54" fill="#4b5866"/></g><g transform="translate(318 447) scale(1 1)"><rect x="-36" y="-24" width="72" height="7" rx="1.5" fill="url(#gBody)" stroke="#7d8b9b" stroke-width="1"/><rect x="-28" y="-17" width="4" height="17" rx="1.5" fill="url(#gSteel)" stroke="#7d8b9b" stroke-width="1"/><rect x="24" y="-17" width="4" height="17" rx="1.5" fill="url(#gSteel)" stroke="#7d8b9b" stroke-width="1"/><rect x="-32" y="-33" width="22" height="9" rx="1.5" fill="url(#gBody)" stroke="#7d8b9b" stroke-width="1"/></g><g transform="translate(346 447) scale(1 1)"><rect x="-10" y="-8" width="20" height="8" rx="1.5" fill="url(#gDark)" stroke="#27303a" stroke-width="1"/><rect x="-2.5" y="-112" width="5" height="106" rx="2" fill="url(#gYellow)" stroke="#e6b422" stroke-width="1"/><circle cx="0" cy="-112" r="4" fill="#ffe27a" stroke="#e6b422" stroke-width="1"/></g><rect x="402" y="287" width="26" height="160" rx="1.5" fill="url(#gBodyH)" stroke="#7d8b9b" stroke-width="1"/><rect x="384" y="339" width="24" height="26" rx="3" fill="url(#gBlue)" stroke="#1d5f98" stroke-width="1"/><rect x="408" y="307" width="14" height="26" rx="1.5" fill="url(#gBody)" stroke="#7d8b9b" stroke-width="1"/><g transform="translate(489 447) scale(1 1)"><rect x="-56" y="-436" width="15" height="436" rx="1" fill="url(#gBodyH)" stroke="#7d8b9b" stroke-width="1"/><rect x="41" y="-436" width="15" height="436" rx="1" fill="url(#gBodyH)" stroke="#7d8b9b" stroke-width="1"/><rect x="-56" y="-436" width="112" height="16" rx="1.5" fill="url(#gBody)" stroke="#7d8b9b" stroke-width="1"/><rect x="-41" y="-226.72" width="82" height="14" rx="1.5" fill="url(#gBody)" stroke="#7d8b9b" stroke-width="1"/><polygon points="-41,-226.72 -41,-246.72 -18,-226.72" fill="url(#gBody)" stroke="#7d8b9b" stroke-width="1" stroke-linejoin="round"/><polygon points="41,-226.72 41,-246.72 18,-226.72" fill="url(#gBody)" stroke="#7d8b9b" stroke-width="1" stroke-linejoin="round"/><rect x="-23" y="-420" width="7" height="406" rx="1" fill="url(#gDark)" stroke="#27303a" stroke-width="1"/><rect x="16" y="-420" width="7" height="406" rx="1" fill="url(#gDark)" stroke="#27303a" stroke-width="1"/><rect x="-5" y="-426" width="10" height="66" rx="2" fill="url(#gRam)" stroke="#7d8b9b" stroke-width="1"/><rect x="-4" y="-218" width="8" height="194" rx="1" fill="url(#gRam)" stroke="#8896a6" stroke-width="1"/><circle cx="0" cy="-380" r="8" fill="url(#gFab)" stroke="#b85a0c" stroke-width="1"/><rect x="-41" y="-30" width="82" height="14" rx="1.5" fill="url(#gYellow)" stroke="#e6b422" stroke-width="1"/><circle cx="-34" cy="-14" r="6" fill="url(#gFab)" stroke="#b85a0c" stroke-width="0.9"/><circle cx="-34" cy="-14" r="1.6800000000000002" fill="#4b5866"/><circle cx="-17" cy="-10" r="6" fill="url(#gFab)" stroke="#b85a0c" stroke-width="0.9"/><circle cx="-17" cy="-10" r="1.6800000000000002" fill="#4b5866"/><circle cx="0" cy="-14" r="6" fill="url(#gFab)" stroke="#b85a0c" stroke-width="0.9"/><circle cx="0" cy="-14" r="1.6800000000000002" fill="#4b5866"/><circle cx="17" cy="-10" r="6" fill="url(#gFab)" stroke="#b85a0c" stroke-width="0.9"/><circle cx="17" cy="-10" r="1.6800000000000002" fill="#4b5866"/><circle cx="34" cy="-14" r="6" fill="url(#gFab)" stroke="#b85a0c" stroke-width="0.9"/><circle cx="34" cy="-14" r="1.6800000000000002" fill="#4b5866"/><rect x="-58" y="-12" width="22" height="12" rx="1.5" fill="url(#gDark)" stroke="#27303a" stroke-width="1"/><rect x="36" y="-12" width="22" height="12" rx="1.5" fill="url(#gDark)" stroke="#27303a" stroke-width="1"/></g><g transform="translate(550 371) scale(1 1)"><rect x="0" y="-76" width="36" height="76" rx="2" fill="none" stroke="#7d8b9b" stroke-width="1" stroke-dasharray="3 2"/><circle cx="11" cy="-60" r="7" fill="url(#gFab)" stroke="#b85a0c" stroke-width="0.9"/><circle cx="11" cy="-60" r="1.9600000000000002" fill="#4b5866"/><circle cx="26" cy="-46" r="7" fill="url(#gFab)" stroke="#b85a0c" stroke-width="0.9"/><circle cx="26" cy="-46" r="1.9600000000000002" fill="#4b5866"/><circle cx="14" cy="-28" r="7" fill="url(#gFab)" stroke="#b85a0c" stroke-width="0.9"/><circle cx="14" cy="-28" r="1.9600000000000002" fill="#4b5866"/><circle cx="28" cy="-12" r="5" fill="url(#gFab)" stroke="#b85a0c" stroke-width="0.9"/><circle cx="28" cy="-12" r="1.4000000000000001" fill="#4b5866"/></g><g transform="translate(590 447) scale(1 1)"><rect x="-10" y="-8" width="20" height="8" rx="1.5" fill="url(#gDark)" stroke="#27303a" stroke-width="1"/><rect x="-2.5" y="-112" width="5" height="106" rx="2" fill="url(#gYellow)" stroke="#e6b422" stroke-width="1"/><circle cx="0" cy="-112" r="4" fill="#ffe27a" stroke="#e6b422" stroke-width="1"/></g><g transform="translate(636 447) scale(1 1)"><rect x="-42" y="-24" width="84" height="7" rx="1.5" fill="url(#gBody)" stroke="#7d8b9b" stroke-width="1"/><rect x="-34" y="-17" width="4" height="17" rx="1.5" fill="url(#gSteel)" stroke="#7d8b9b" stroke-width="1"/><rect x="30" y="-17" width="4" height="17" rx="1.5" fill="url(#gSteel)" stroke="#7d8b9b" stroke-width="1"/><rect x="-38" y="-33" width="22" height="9" rx="1.5" fill="url(#gBody)" stroke="#7d8b9b" stroke-width="1"/></g><g transform="translate(710 447) scale(1 1)"><rect x="-46" y="-150" width="92" height="128" rx="3" fill="url(#gBody)" stroke="#7d8b9b" stroke-width="1"/><rect x="-40" y="-142" width="16" height="60" rx="1.5" fill="url(#gSteel)" stroke="#7d8b9b" stroke-width="1"/><rect x="24" y="-142" width="16" height="60" rx="1.5" fill="url(#gSteel)" stroke="#7d8b9b" stroke-width="1"/><rect x="-40" y="-76" width="14" height="22" rx="1.5" fill="url(#gRam)" stroke="#7d8b9b" stroke-width="1"/><rect x="26" y="-76" width="14" height="22" rx="1.5" fill="url(#gRam)" stroke="#7d8b9b" stroke-width="1"/><circle cx="-4" cy="-126" r="15" fill="url(#gFab)" stroke="#b85a0c" stroke-width="1"/><circle cx="-4" cy="-126" r="9.3" fill="none" stroke="#b85a0c" stroke-opacity="0.35" stroke-width="1"/><circle cx="-4" cy="-126" r="4.5" fill="url(#gSteel)" stroke="#7d8b9b" stroke-width="1"/><circle cx="23" cy="-126" r="14" fill="url(#gFab)" stroke="#b85a0c" stroke-width="1"/><circle cx="23" cy="-126" r="8.68" fill="none" stroke="#b85a0c" stroke-opacity="0.35" stroke-width="1"/><circle cx="23" cy="-126" r="4.2" fill="url(#gSteel)" stroke="#7d8b9b" stroke-width="1"/><circle cx="-4" cy="-98" r="14" fill="url(#gFab)" stroke="#b85a0c" stroke-width="1"/><circle cx="-4" cy="-98" r="8.68" fill="none" stroke="#b85a0c" stroke-opacity="0.35" stroke-width="1"/><circle cx="-4" cy="-98" r="4.2" fill="url(#gSteel)" stroke="#7d8b9b" stroke-width="1"/><rect x="-42" y="-50" width="84" height="12" rx="1.5" fill="url(#gSteel)" stroke="#7d8b9b" stroke-width="1"/><circle cx="-32" cy="-32" r="5" fill="url(#gFab)" stroke="#b85a0c" stroke-width="0.9"/><circle cx="-32" cy="-32" r="1.4000000000000001" fill="#4b5866"/><circle cx="-18" cy="-26" r="5" fill="url(#gFab)" stroke="#b85a0c" stroke-width="0.9"/><circle cx="-18" cy="-26" r="1.4000000000000001" fill="#4b5866"/><circle cx="-8" cy="-38" r="5" fill="url(#gFab)" stroke="#b85a0c" stroke-width="0.9"/><circle cx="-8" cy="-38" r="1.4000000000000001" fill="#4b5866"/><rect x="-38" y="-22" width="76" height="16" rx="3" fill="url(#gGreen)" stroke="#2f9e5f" stroke-width="1"/><rect x="-32" y="-8" width="14" height="8" rx="1.5" fill="url(#gDark)" stroke="#27303a" stroke-width="1"/><rect x="18" y="-8" width="14" height="8" rx="1.5" fill="url(#gDark)" stroke="#27303a" stroke-width="1"/></g><g transform="translate(775 447) scale(1 1)"><rect x="0" y="-202" width="333" height="202" rx="3" fill="url(#gOven)" stroke="#a39a76" stroke-width="1.4"/><line x1="111" y1="-202" x2="111" y2="0" stroke="#a39a76" stroke-width="1.3" stroke-linecap="round"/><line x1="222" y1="-202" x2="222" y2="0" stroke="#a39a76" stroke-width="1.3" stroke-linecap="round"/><line x1="0" y1="-176" x2="333" y2="-176" stroke="#a39a76" stroke-width="1" stroke-linecap="round" stroke-dasharray="9 5"/><rect x="14" y="-158" width="14.357142857142858" height="10" rx="1" fill="url(#gBody)" stroke="#a39a76" stroke-width="1"/><rect x="19" y="-138" width="14.357142857142858" height="10" rx="1" fill="url(#gBody)" stroke="#a39a76" stroke-width="1"/><rect x="36.35714285714286" y="-158" width="14.357142857142858" height="10" rx="1" fill="url(#gBody)" stroke="#a39a76" stroke-width="1"/><rect x="41.35714285714286" y="-138" width="14.357142857142858" height="10" rx="1" fill="url(#gBody)" stroke="#a39a76" stroke-width="1"/><rect x="58.714285714285715" y="-158" width="14.357142857142858" height="10" rx="1" fill="url(#gBody)" stroke="#a39a76" stroke-width="1"/><rect x="63.714285714285715" y="-138" width="14.357142857142858" height="10" rx="1" fill="url(#gBody)" stroke="#a39a76" stroke-width="1"/><rect x="81.07142857142857" y="-158" width="14.357142857142858" height="10" rx="1" fill="url(#gBody)" stroke="#a39a76" stroke-width="1"/><rect x="86.07142857142857" y="-138" width="14.357142857142858" height="10" rx="1" fill="url(#gBody)" stroke="#a39a76" stroke-width="1"/><rect x="103.42857142857143" y="-158" width="14.357142857142858" height="10" rx="1" fill="url(#gBody)" stroke="#a39a76" stroke-width="1"/><rect x="108.42857142857143" y="-138" width="14.357142857142858" height="10" rx="1" fill="url(#gBody)" stroke="#a39a76" stroke-width="1"/><rect x="125.78571428571429" y="-158" width="14.357142857142858" height="10" rx="1" fill="url(#gBody)" stroke="#a39a76" stroke-width="1"/><rect x="130.78571428571428" y="-138" width="14.357142857142858" height="10" rx="1" fill="url(#gBody)" stroke="#a39a76" stroke-width="1"/><rect x="148.14285714285714" y="-158" width="14.357142857142858" height="10" rx="1" fill="url(#gBody)" stroke="#a39a76" stroke-width="1"/><rect x="153.14285714285714" y="-138" width="14.357142857142858" height="10" rx="1" fill="url(#gBody)" stroke="#a39a76" stroke-width="1"/><rect x="170.5" y="-158" width="14.357142857142858" height="10" rx="1" fill="url(#gBody)" stroke="#a39a76" stroke-width="1"/><rect x="175.5" y="-138" width="14.357142857142858" height="10" rx="1" fill="url(#gBody)" stroke="#a39a76" stroke-width="1"/><rect x="192.85714285714286" y="-158" width="14.357142857142858" height="10" rx="1" fill="url(#gBody)" stroke="#a39a76" stroke-width="1"/><rect x="197.85714285714286" y="-138" width="14.357142857142858" height="10" rx="1" fill="url(#gBody)" stroke="#a39a76" stroke-width="1"/><rect x="215.21428571428572" y="-158" width="14.357142857142858" height="10" rx="1" fill="url(#gBody)" stroke="#a39a76" stroke-width="1"/><rect x="220.21428571428572" y="-138" width="14.357142857142858" height="10" rx="1" fill="url(#gBody)" stroke="#a39a76" stroke-width="1"/><rect x="237.57142857142858" y="-158" width="14.357142857142858" height="10" rx="1" fill="url(#gBody)" stroke="#a39a76" stroke-width="1"/><rect x="242.57142857142858" y="-138" width="14.357142857142858" height="10" rx="1" fill="url(#gBody)" stroke="#a39a76" stroke-width="1"/><rect x="259.92857142857144" y="-158" width="14.357142857142858" height="10" rx="1" fill="url(#gBody)" stroke="#a39a76" stroke-width="1"/><rect x="264.92857142857144" y="-138" width="14.357142857142858" height="10" rx="1" fill="url(#gBody)" stroke="#a39a76" stroke-width="1"/><rect x="282.2857142857143" y="-158" width="14.357142857142858" height="10" rx="1" fill="url(#gBody)" stroke="#a39a76" stroke-width="1"/><rect x="287.2857142857143" y="-138" width="14.357142857142858" height="10" rx="1" fill="url(#gBody)" stroke="#a39a76" stroke-width="1"/><rect x="304.64285714285717" y="-158" width="14.357142857142858" height="10" rx="1" fill="url(#gBody)" stroke="#a39a76" stroke-width="1"/><rect x="309.64285714285717" y="-138" width="14.357142857142858" height="10" rx="1" fill="url(#gBody)" stroke="#a39a76" stroke-width="1"/><line x1="0" y1="-116" x2="333" y2="-116" stroke="#a39a76" stroke-width="1" stroke-linecap="round" stroke-dasharray="9 5"/><line x1="0" y1="-118" x2="333" y2="-118" stroke="#f08a3c" stroke-width="2" stroke-linecap="round"/><line x1="0" y1="-26" x2="333" y2="-26" stroke="#a39a76" stroke-width="1" stroke-linecap="round" stroke-dasharray="9 5"/><rect x="8" y="-8" width="30" height="8" rx="1.5" fill="url(#gDark)" stroke="#27303a" stroke-width="1"/><rect x="295" y="-8" width="30" height="8" rx="1.5" fill="url(#gDark)" stroke="#27303a" stroke-width="1"/></g><g transform="translate(1165 447) scale(1 1)"><rect x="0" y="-190" width="16" height="190" rx="1.5" fill="url(#gBodyH)" stroke="#7d8b9b" stroke-width="1"/><rect x="-4" y="-194" width="24" height="8" rx="1.5" fill="url(#gBody)" stroke="#7d8b9b" stroke-width="1"/><rect x="16" y="-100" width="160" height="14" rx="1.5" fill="url(#gBody)" stroke="#7d8b9b" stroke-width="1"/><rect x="168" y="-100" width="16" height="100" rx="1.5" fill="url(#gBodyH)" stroke="#7d8b9b" stroke-width="1"/><rect x="112" y="-176" width="8" height="74" rx="1.5" fill="url(#gSteel)" stroke="#7d8b9b" stroke-width="1"/><rect x="166" y="-176" width="8" height="74" rx="1.5" fill="url(#gSteel)" stroke="#7d8b9b" stroke-width="1"/><circle cx="116" cy="-150" r="24" fill="url(#gFab)" stroke="#b85a0c" stroke-width="1"/><circle cx="116" cy="-150" r="14.879999999999999" fill="none" stroke="#b85a0c" stroke-opacity="0.35" stroke-width="1"/><circle cx="116" cy="-150" r="7.199999999999999" fill="url(#gSteel)" stroke="#7d8b9b" stroke-width="1"/><circle cx="170" cy="-152" r="24" fill="url(#gFab)" stroke="#b85a0c" stroke-width="1"/><circle cx="170" cy="-152" r="14.879999999999999" fill="none" stroke="#b85a0c" stroke-opacity="0.35" stroke-width="1"/><circle cx="170" cy="-152" r="7.199999999999999" fill="url(#gSteel)" stroke="#7d8b9b" stroke-width="1"/><circle cx="70" cy="-54" r="22" fill="url(#gFab)" stroke="#b85a0c" stroke-width="1"/><circle cx="70" cy="-54" r="13.64" fill="none" stroke="#b85a0c" stroke-opacity="0.35" stroke-width="1"/><circle cx="70" cy="-54" r="6.6" fill="url(#gSteel)" stroke="#7d8b9b" stroke-width="1"/><circle cx="121" cy="-50" r="26" fill="url(#gFab)" stroke="#b85a0c" stroke-width="1"/><circle cx="121" cy="-50" r="16.12" fill="none" stroke="#b85a0c" stroke-opacity="0.35" stroke-width="1"/><circle cx="121" cy="-50" r="7.8" fill="url(#gSteel)" stroke="#7d8b9b" stroke-width="1"/><circle cx="174" cy="-50" r="26" fill="url(#gFab)" stroke="#b85a0c" stroke-width="1"/><circle cx="174" cy="-50" r="16.12" fill="none" stroke="#b85a0c" stroke-opacity="0.35" stroke-width="1"/><circle cx="174" cy="-50" r="7.8" fill="url(#gSteel)" stroke="#7d8b9b" stroke-width="1"/><rect x="108" y="-14" width="28" height="9" rx="2" fill="url(#gDark)" stroke="#27303a" stroke-width="1"/><circle cx="113" cy="-4" r="4" fill="#4b5866" stroke="#27303a" stroke-width="1"/><circle cx="131" cy="-4" r="4" fill="#4b5866" stroke="#27303a" stroke-width="1"/><rect x="160" y="-14" width="28" height="9" rx="2" fill="url(#gDark)" stroke="#27303a" stroke-width="1"/><circle cx="165" cy="-4" r="4" fill="#4b5866" stroke="#27303a" stroke-width="1"/><circle cx="183" cy="-4" r="4" fill="#4b5866" stroke="#27303a" stroke-width="1"/><rect x="22" y="-150" width="32" height="46" rx="1.5" fill="url(#gBody)" stroke="#7d8b9b" stroke-width="1"/><rect x="30" y="-142" width="16" height="28" rx="2" fill="#b9d4ea" stroke="#7d8b9b" stroke-width="1"/><rect x="30" y="-82" width="26" height="30" rx="1.5" fill="url(#gBody)" stroke="#7d8b9b" stroke-width="1"/></g><g transform="translate(1458 447) scale(-0.82 0.82)"><polygon points="-46,0 -34,-14 34,-14 46,0" fill="url(#gDark)" stroke="#27303a" stroke-width="1" stroke-linejoin="round"/><rect x="-13" y="-170" width="26" height="158" rx="1.5" fill="url(#gBodyH)" stroke="#7d8b9b" stroke-width="1"/><rect x="-24" y="-178" width="48" height="56" rx="1.5" fill="url(#gBody)" stroke="#7d8b9b" stroke-width="1"/><rect x="-52" y="-176" width="34" height="48" rx="1.5" fill="url(#gBody)" stroke="#7d8b9b" stroke-width="1"/><rect x="-47" y="-171" width="24" height="28" rx="1" fill="#b9d4ea" stroke="#7d8b9b" stroke-width="1"/><circle cx="-35" cy="-134" r="3" fill="#2f7fc1" stroke="#7d8b9b" stroke-width="1"/><rect x="-46" y="-100" width="92" height="30" rx="6" fill="url(#gBodyH)" stroke="#7d8b9b" stroke-width="1"/><rect x="-58" y="-97" width="14" height="24" rx="7" fill="url(#gSteel)" stroke="#7d8b9b" stroke-width="1"/><rect x="44" y="-97" width="14" height="24" rx="7" fill="url(#gSteel)" stroke="#7d8b9b" stroke-width="1"/><circle cx="60.5" cy="-85" r="30" fill="url(#gFab)" stroke="#b85a0c" stroke-width="1"/><circle cx="60.5" cy="-85" r="18.6" fill="none" stroke="#b85a0c" stroke-opacity="0.35" stroke-width="1"/><circle cx="60.5" cy="-85" r="9" fill="url(#gSteel)" stroke="#7d8b9b" stroke-width="1"/><path d="M 44 -89.5 A 16.8 16.8 0 0 1 66.5 -100.6" fill="none" stroke="#b85a0c" stroke-width="1.4" marker-end="url(#none)"/></g><circle cx="202" cy="340" r="5" fill="url(#gFab)" stroke="#b85a0c" stroke-width="0.9"/><circle cx="202" cy="340" r="1.4000000000000001" fill="#4b5866"/><circle cx="298" cy="340" r="5" fill="url(#gFab)" stroke="#b85a0c" stroke-width="0.9"/><circle cx="298" cy="340" r="1.4000000000000001" fill="#4b5866"/><circle cx="226" cy="432" r="5" fill="url(#gFab)" stroke="#b85a0c" stroke-width="0.9"/><circle cx="226" cy="432" r="1.4000000000000001" fill="#4b5866"/><circle cx="274" cy="432" r="5" fill="url(#gFab)" stroke="#b85a0c" stroke-width="0.9"/><circle cx="274" cy="432" r="1.4000000000000001" fill="#4b5866"/><circle cx="334" cy="432" r="4" fill="url(#gFab)" stroke="#b85a0c" stroke-width="0.9"/><circle cx="334" cy="432" r="1.2" fill="#4b5866"/><circle cx="398" cy="432" r="5" fill="url(#gFab)" stroke="#b85a0c" stroke-width="0.9"/><circle cx="398" cy="432" r="1.4000000000000001" fill="#4b5866"/><circle cx="456" cy="432" r="4" fill="url(#gFab)" stroke="#b85a0c" stroke-width="0.9"/><circle cx="456" cy="432" r="1.2" fill="#4b5866"/><circle cx="560" cy="436" r="5" fill="url(#gFab)" stroke="#b85a0c" stroke-width="0.9"/><circle cx="560" cy="436" r="1.4000000000000001" fill="#4b5866"/><circle cx="676" cy="436" r="4" fill="url(#gFab)" stroke="#b85a0c" stroke-width="0.9"/><circle cx="676" cy="436" r="1.2" fill="#4b5866"/><circle cx="1160" cy="296" r="5" fill="url(#gFab)" stroke="#b85a0c" stroke-width="0.9"/><circle cx="1160" cy="296" r="1.4000000000000001" fill="#4b5866"/><circle cx="1190" cy="286" r="5" fill="url(#gFab)" stroke="#b85a0c" stroke-width="0.9"/><circle cx="1190" cy="286" r="1.4000000000000001" fill="#4b5866"/><circle cx="1245" cy="300" r="5" fill="url(#gFab)" stroke="#b85a0c" stroke-width="0.9"/><circle cx="1245" cy="300" r="1.4000000000000001" fill="#4b5866"/><circle cx="1425" cy="342" r="5" fill="url(#gFab)" stroke="#b85a0c" stroke-width="0.9"/><circle cx="1425" cy="342" r="1.4000000000000001" fill="#4b5866"/></svg>