<svg xmlns="http://www.w3.org/2000/svg" viewBox="0 0 935 435" width="935" height="435"><defs>
<linearGradient id="gBody" x1="0" y1="0" x2="0" y2="1"><stop offset="0" stop-color="#f4f7fa"/><stop offset="1" stop-color="#cdd7e2"/></linearGradient>
<linearGradient id="gBodyH" x1="0" y1="0" x2="1" y2="0"><stop offset="0" stop-color="#cdd7e2"/><stop offset="0.35" stop-color="#f4f7fa"/><stop offset="1" stop-color="#cdd7e2"/></linearGradient>
<linearGradient id="gSteel" x1="0" y1="0" x2="1" y2="0"><stop offset="0" stop-color="#9aa6b4"/><stop offset="0.4" stop-color="#dfe5ec"/><stop offset="1" stop-color="#9aa6b4"/></linearGradient>
<linearGradient id="gRam" x1="0" y1="0" x2="1" y2="0"><stop offset="0" stop-color="#8896a6"/><stop offset="0.45" stop-color="#c5ced8"/><stop offset="1" stop-color="#8896a6"/></linearGradient>
<linearGradient id="gDark" x1="0" y1="0" x2="1" y2="0"><stop offset="0" stop-color="#27303a"/><stop offset="0.5" stop-color="#4b5866"/><stop offset="1" stop-color="#27303a"/></linearGradient>
<linearGradient id="gOven" x1="0" y1="0" x2="0" y2="1"><stop offset="0" stop-color="#fbf6e2"/><stop offset="1" stop-color="#efe5bd"/></linearGradient>
<linearGradient id="gYellow" x1="0" y1="0" x2="1" y2="0"><stop offset="0" stop-color="#e6b422"/><stop offset="0.45" stop-color="#ffe27a"/><stop offset="1" stop-color="#e6b422"/></linearGradient>
<linearGradient id="gGreen" x1="0" y1="0" x2="0" y2="1"><stop offset="0" stop-color="#6fcf97"/><stop offset="1" stop-color="#2f9e5f"/></linearGradient>
<linearGradient id="gBlue" x1="0" y1="0" x2="1" y2="0"><stop offset="0" stop-color="#1d5f98"/><stop offset="0.45" stop-color="#2f7fc1"/><stop offset="1" stop-color="#1d5f98"/></linearGradient>
<radialGradient id="gFab" cx="0.38" cy="0.35" r="0.8"><stop offset="0" stop-color="#ffb36b"/><stop offset="1" stop-color="#ec7a1e"/></radialGradient>
</defs><line x1="40" y1="428" x2="890" y2="428" stroke="#3c4754" stroke-width="4" stroke-linecap="butt"/><polyline points="78,235 210,232 282.5,221.75 342.5,205.5 377.5,286.75 427.5,293 477.5,293 540,280.5" fill="none" stroke="#f08a3c" stroke-width="2" stroke-linejoin="round" stroke-linecap="round"/><polyline points="540,280.5 640,282 770,308" fill="none" stroke="#f08a3c" stroke-width="1.8" stroke-linejoin="round" stroke-linecap="round"/><g transform="translate(290 428) scale(1.25 1.25)"><rect x="0" y="-190" width="16" height="190" rx="1.5" fill="url(#gBodyH)" stroke="#7d8b9b" stroke-width="1"/><rect x="-4" y="-194" width="24" height="8" rx="1.5" fill="url(#gBody)" stroke="#7d8b9b" stroke-width="1"/><rect x="16" y="-100" width="160" height="14" rx="1.5" fill="url(#gBody)" stroke="#7d8b9b" stroke-width="1"/><rect x="168" y="-100" width="16" height="100" rx="1.5" fill="url(#gBodyH)" stroke="#7d8b9b" stroke-width="1"/><rect x="112" y="-176" width="8" height="74" rx="1.5" fill="url(#gSteel)" stroke="#7d8b9b" stroke-width="1"/><rect x="166" y="-176" width="8" height="74" rx="1.5" fill="url(#gSteel)" stroke="#7d8b9b" stroke-width="1"/><circle cx="116" cy="-150" r="24" fill="url(#gFab)" stroke="#b85a0c" stroke-width="1"/><circle cx="116" cy="-150" r="14.879999999999999" fill="none" stroke="#b85a0c" stroke-opacity="0.35" stroke-width="1"/><circle cx="116" cy="-150" r="7.199999999999999" fill="url(#gSteel)" stroke="#7d8b9b" stroke-width="1"/><circle cx="170" cy="-152" r="24" fill="url(#gFab)" stroke="#b85a0c" stroke-width="1"/><circle cx="170" cy="-152" r="14.879999999999999" fill="none" stroke="#b85a0c" stroke-opacity="0.35" stroke-width="1"/><circle cx="170" cy="-152" r="7.199999999999999" fill="url(#gSteel)" stroke="#7d8b9b" stroke-width="1"/><circle cx="70" cy="-54" r="22" fill="url(#gFab)" stroke="#b85a0c" stroke-width="1"/><circle cx="70" cy="-54" r="13.64" fill="none" stroke="#b85a0c" stroke-opacity="0.35" stroke-width="1"/><circle cx="70" cy="-54" r="6.6" fill="url(#gSteel)" stroke="#7d8b9b" stroke-width="1"/><circle cx="121" cy="-50" r="26" fill="url(#gFab)" stroke="#b85a0c" stroke-width="1"/><circle cx="121" cy="-50" r="16.12" fill="none" stroke="#b85a0c" stroke-opacity="0.35" stroke-width="1"/><circle cx="121" cy="-50" r="7.8" fill="url(#gSteel)" stroke="#7d8b9b" stroke-width="1"/><circle cx="174" cy="-50" r="26" fill="url(#gFab)" stroke="#b85a0c" stroke-width="1"/><circle cx="174" cy="-50" r="16.12" fill="none" stroke="#b85a0c" stroke-opacity="0.35" stroke-width="1"/><circle cx="174" cy="-50" r="7.8" fill="url(#gSteel)" stroke="#7d8b9b" stroke-width="1"/><rect x="108" y="-14" width="28" height="9" rx="2" fill="url(#gDark)" stroke="#27303a" stroke-width="1"/><circle cx="113" cy="-4" r="4" fill="#4b5866" stroke="#27303a" stroke-width="1"/><circle cx="131" cy="-4" r="4" fill="#4b5866" stroke="#27303a" stroke-width="1"/><rect x="160" y="-14" width="28" height="9" rx="2" fill="url(#gDark)" stroke="#27303a" stroke-width="1"/><circle cx="165" cy="-4" r="4" fill="#4b5866" stroke="#27303a" stroke-width="1"/><circle cx="183" cy="-4" r="4" fill="#4b5866" stroke="#27303a" stroke-width="1"/><rect x="22" y="-150" width="32" height="46" rx="1.5" fill="url(#gBody)" stroke="#7d8b9b" stroke-width="1"/><rect x="30" y="-142" width="16" height="28" rx="2" fill="#b9d4ea" stroke="#7d8b9b" stroke-width="1"/><rect x="30" y="-82" width="26" height="30" rx="1.5" fill="url(#gBody)" stroke="#7d8b9b" stroke-width="1"/></g><g transform="translate(838 428) scale(-1.1 1.1)"><polygon points="-46,0 -34,-14 34,-14 46,0" fill="url(#gDark)" stroke="#27303a" stroke-width="1" stroke-linejoin="round"/><rect x="-13" y="-170" width="26" height="158" rx="1.5" fill="url(#gBodyH)" stroke="#7d8b9b" stroke-width="1"/><rect x="-24" y="-178" width="48" height="56" rx="1.5" fill="url(#gBody)" stroke="#7d8b9b" stroke-width="1"/><rect x="-52" y="-176" width="34" height="48" rx="1.5" fill="url(#gBody)" stroke="#7d8b9b" stroke-width="1"/><rect x="-47" y="-171" width="24" height="28" rx="1" fill="#b9d4ea" stroke="#7d8b9b" stroke-width="1"/><circle cx="-35" cy="-134" r="3" fill="#2f7fc1" stroke="#7d8b9b" stroke-width="1"/><rect x="-46" y="-100" width="92" height="30" rx="6" fill="url(#gBodyH)" stroke="#7d8b9b" stroke-width="1"/><rect x="-58" y="-97" width="14" height="24" rx="7" fill="url(#gSteel)" stroke="#7d8b9b" stroke-width="1"/><rect x="44" y="-97" width="14" height="24" rx="7" fill="url(#gSteel)" stroke="#7d8b9b" stroke-width="1"/><circle cx="60.5" cy="-85" r="30" fill="url(#gFab)" stroke="#b85a0c" stroke-width="1"/><circle cx="60.5" cy="-85" r="18.6" fill="none" stroke="#b85a0c" stroke-opacity="0.35" stroke-width="1"/><circle cx="60.5" cy="-85" r="9" fill="url(#gSteel)" stroke="#7d8b9b" stroke-width="1"/><path d="M 44 -89.5 A 16.8 16.8 0 0 1 66.5 -100.6" fill="none" stroke="#b85a0c" stroke-width="1.4" marker-end="url(#none)"/></g><circle cx="282.5" cy="221.75" r="7" fill="url(#gFab)" stroke="#b85a0c" stroke-width="0.9"/><circle cx="282.5" cy="221.75" r="1.9600000000000002" fill="#4b5866"/><circle cx="342.5" cy="205.5" r="7" fill="url(#gFab)" stroke="#b85a0c" stroke-width="0.9"/><circle cx="342.5" cy="205.5" r="1.9600000000000002" fill="#4b5866"/><circle cx="377.5" cy="286.75" r="7" fill="url(#gFab)" stroke="#b85a0c" stroke-width="0.9"/><circle cx="377.5" cy="286.75" r="1.9600000000000002" fill="#4b5866"/><circle cx="427.5" cy="293" r="7" fill="url(#gFab)" stroke="#b85a0c" stroke-width="0.9"/><circle cx="427.5" cy="293" r="1.9600000000000002" fill="#4b5866"/><circle cx="210" cy="232" r="7" fill="url(#gFab)" stroke="#b85a0c" stroke-width="0.9"/><circle cx="210" cy="232" r="1.9600000000000002" fill="#4b5866"/><line x1="30" y1="235" x2="71" y2="235" stroke="#26313c" stroke-width="2.5" stroke-linecap="round"/><polygon points="80,235 67,229.5 67,240.5" fill="#26313c"/><text x="14" y="196" font-family="Segoe UI, Noto Sans, Arial, sans-serif" font-size="15" font-weight="600" fill="#26313c" text-anchor="start">Fiber from</text><text x="14" y="216" font-family="Segoe UI, Noto Sans, Arial, sans-serif" font-size="15" font-weight="600" fill="#26313c" text-anchor="start">Oven</text></svg>