<svg xmlns="http://www.w3.org/2000/svg" viewBox="0 0 930 605" width="930" height="605"><defs>
<linearGradient id="gBody" x1="0" y1="0" x2="0" y2="1"><stop offset="0" stop-color="#566474"/><stop offset="1" stop-color="#3a4654"/></linearGradient>
<linearGradient id="gBodyH" x1="0" y1="0" x2="1" y2="0"><stop offset="0" stop-color="#3a4654"/><stop offset="0.35" stop-color="#566474"/><stop offset="1" stop-color="#3a4654"/></linearGradient>
<linearGradient id="gSteel" x1="0" y1="0" x2="1" y2="0"><stop offset="0" stop-color="#3b4756"/><stop offset="0.4" stop-color="#6c7b8d"/><stop offset="1" stop-color="#3b4756"/></linearGradient>
<linearGradient id="gRam" x1="0" y1="0" x2="1" y2="0"><stop offset="0" stop-color="#4d5b6c"/><stop offset="0.45" stop-color="#7d8c9f"/><stop offset="1" stop-color="#4d5b6c"/></linearGradient>
<linearGradient id="gDark" x1="0" y1="0" x2="1" y2="0"><stop offset="0" stop-color="#12171d"/><stop offset="0.5" stop-color="#2a333e"/><stop offset="1" stop-color="#12171d"/></linearGradient>
<linearGradient id="gOven" x1="0" y1="0" x2="0" y2="1"><stop offset="0" stop-color="#5a5744"/><stop offset="1" stop-color="#47452f"/></linearGradient>
<linearGradient id="gYellow" x1="0" y1="0" x2="1" y2="0"><stop offset="0" stop-color="#d9a81c"/><stop offset="0.45" stop-color="#ffe27a"/><stop offset="1" stop-color="#d9a81c"/></linearGradient>
<linearGradient id="gGreen" x1="0" y1="0" x2="0" y2="1"><stop offset="0" stop-color="#6fcf97"/><stop offset="1" stop-color="#2f9e5f"/></linearGradient>
<linearGradient id="gBlue" x1="0" y1="0" x2="1" y2="0"><stop offset="0" stop-color="#2f7fc1"/><stop offset="0.45" stop-color="#4aa3e8"/><stop offset="1" stop-color="#2f7fc1"/></linearGradient>
<radialGradient id="gFab" cx="0.38" cy="0.35" r="0.8"><stop offset="0" stop-color="#ffb36b"/><stop offset="1" stop-color="#e8741c"/></radialGradient>
</defs><line x1="45" y1="598" x2="905" y2="598" stroke="#d3dbe5" stroke-width="4" stroke-linecap="butt"/><polyline points="78,578 240,578 296,580" fill="none" stroke="#ff9a4d" stroke-width="2" stroke-linejoin="round" stroke-linecap="round"/><polyline points="296,580 298,70 371,64 444,70 446,430 486,440 520,450 522,578 700,578 735,582" fill="none" stroke="#b7743c" stroke-width="1.8" stroke-linejoin="round" stroke-linecap="round"/><polyline points="740,568 745,470 800,470 848,424 868,405" fill="none" stroke="#ff9a4d" stroke-width="2" stroke-linejoin="round" stroke-linecap="round"/><rect x="243" y="374" width="20" height="224" rx="1.5" fill="url(#gBodyH)" stroke="#9fb1c6" stroke-width="1"/><rect x="176" y="458" width="52" height="24" rx="4" fill="url(#gBlue)" stroke="#2f7fc1" stroke-width="1"/><rect x="224" y="448" width="22" height="40" rx="3" fill="url(#gGreen)" stroke="#2f9e5f" stroke-width="1"/><g transform="translate(371 598) scale(1 1)"><rect x="-83.5" y="-588" width="15" height="588" rx="1" fill="url(#gBodyH)" stroke="#9fb1c6" stroke-width="1"/><rect x="68.5" y="-588" width="15" height="588" rx="1" fill="url(#gBodyH)" stroke="#9fb1c6" stroke-width="1"/><rect x="-83.5" y="-588" width="167" height="16" rx="1.5" fill="url(#gBody)" stroke="#9fb1c6" stroke-width="1"/><rect x="-68.5" y="-305.76" width="137" height="14" rx="1.5" fill="url(#gBody)" stroke="#9fb1c6" stroke-width="1"/><polygon points="-68.5,-305.76 -68.5,-325.76 -45.5,-305.76" fill="url(#gBody)" stroke="#9fb1c6" stroke-width="1" stroke-linejoin="round"/><polygon points="68.5,-305.76 68.5,-325.76 45.5,-305.76" fill="url(#gBody)" stroke="#9fb1c6" stroke-width="1" stroke-linejoin="round"/><rect x="-50.5" y="-572" width="7" height="558" rx="1" fill="url(#gDark)" stroke="#12171d" stroke-width="1"/><rect x="43.5" y="-572" width="7" height="558" rx="1" fill="url(#gDark)" stroke="#12171d" stroke-width="1"/><rect x="-5" y="-578" width="10" height="66" rx="2" fill="url(#gRam)" stroke="#9fb1c6" stroke-width="1"/><rect x="-4" y="-294" width="8" height="270" rx="1" fill="url(#gRam)" stroke="#4d5b6c" stroke-width="1"/><circle cx="0" cy="-532" r="8" fill="url(#gFab)" stroke="#ffcf9e" stroke-width="1"/><rect x="-68.5" y="-30" width="137" height="14" rx="1.5" fill="url(#gYellow)" stroke="#d9a81c" stroke-width="1"/><circle cx="-34" cy="-14" r="6" fill="url(#gFab)" stroke="#ffcf9e" stroke-width="0.9"/><circle cx="-34" cy="-14" r="1.6800000000000002" fill="#2a333e"/><circle cx="-17" cy="-10" r="6" fill="url(#gFab)" stroke="#ffcf9e" stroke-width="0.9"/><circle cx="-17" cy="-10" r="1.6800000000000002" fill="#2a333e"/><circle cx="0" cy="-14" r="6" fill="url(#gFab)" stroke="#ffcf9e" stroke-width="0.9"/><circle cx="0" cy="-14" r="1.6800000000000002" fill="#2a333e"/><circle cx="17" cy="-10" r="6" fill="url(#gFab)" stroke="#ffcf9e" stroke-width="0.9"/><circle cx="17" cy="-10" r="1.6800000000000002" fill="#2a333e"/><circle cx="34" cy="-14" r="6" fill="url(#gFab)" stroke="#ffcf9e" stroke-width="0.9"/><circle cx="34" cy="-14" r="1.6800000000000002" fill="#2a333e"/><rect x="-85.5" y="-12" width="22" height="12" rx="1.5" fill="url(#gDark)" stroke="#12171d" stroke-width="1"/><rect x="63.5" y="-12" width="22" height="12" rx="1.5" fill="url(#gDark)" stroke="#12171d" stroke-width="1"/></g><g transform="translate(456 472) scale(1 1)"><rect x="0" y="-90" width="60" height="90" rx="2" fill="none" stroke="#9fb1c6" stroke-width="1" stroke-dasharray="3 2"/><circle cx="11" cy="-74" r="7" fill="url(#gFab)" stroke="#ffcf9e" stroke-width="0.9"/><circle cx="11" cy="-74" r="1.9600000000000002" fill="#2a333e"/><circle cx="26" cy="-60" r="7" fill="url(#gFab)" stroke="#ffcf9e" stroke-width="0.9"/><circle cx="26" cy="-60" r="1.9600000000000002" fill="#2a333e"/><circle cx="14" cy="-42" r="7" fill="url(#gFab)" stroke="#ffcf9e" stroke-width="0.9"/><circle cx="14" cy="-42" r="1.9600000000000002" fill="#2a333e"/><circle cx="28" cy="-26" r="5" fill="url(#gFab)" stroke="#ffcf9e" stroke-width="0.9"/><circle cx="28" cy="-26" r="1.4000000000000001" fill="#2a333e"/></g><g transform="translate(612 598) scale(1 1)"><rect x="-10" y="-8" width="20" height="8" rx="1.5" fill="url(#gDark)" stroke="#12171d" stroke-width="1"/><rect x="-2.5" y="-160" width="5" height="154" rx="2" fill="url(#gYellow)" stroke="#d9a81c" stroke-width="1"/><circle cx="0" cy="-160" r="4" fill="#ffe27a" stroke="#d9a81c" stroke-width="1"/></g><g transform="translate(668 598) scale(1 1)"><rect x="-50" y="-28" width="100" height="7" rx="1.5" fill="url(#gBody)" stroke="#9fb1c6" stroke-width="1"/><rect x="-42" y="-21" width="4" height="21" rx="1.5" fill="url(#gSteel)" stroke="#9fb1c6" stroke-width="1"/><rect x="38" y="-21" width="4" height="21" rx="1.5" fill="url(#gSteel)" stroke="#9fb1c6" stroke-width="1"/><rect x="-46" y="-37" width="22" height="9" rx="1.5" fill="url(#gBody)" stroke="#9fb1c6" stroke-width="1"/></g><g transform="translate(795 598) scale(1 1)"><rect x="-62.5" y="-200" width="125" height="178" rx="3" fill="url(#gBody)" stroke="#9fb1c6" stroke-width="1"/><rect x="-56.5" y="-192" width="16" height="60" rx="1.5" fill="url(#gSteel)" stroke="#9fb1c6" stroke-width="1"/><rect x="40.5" y="-192" width="16" height="60" rx="1.5" fill="url(#gSteel)" stroke="#9fb1c6" stroke-width="1"/><rect x="-56.5" y="-126" width="14" height="22" rx="1.5" fill="url(#gRam)" stroke="#9fb1c6" stroke-width="1"/><rect x="42.5" y="-126" width="14" height="22" rx="1.5" fill="url(#gRam)" stroke="#9fb1c6" stroke-width="1"/><circle cx="-4" cy="-176" r="15" fill="url(#gFab)" stroke="#ffcf9e" stroke-width="1"/><circle cx="-4" cy="-176" r="9.3" fill="none" stroke="#ffcf9e" stroke-opacity="0.35" stroke-width="1"/><circle cx="-4" cy="-176" r="4.5" fill="url(#gSteel)" stroke="#9fb1c6" stroke-width="1"/><circle cx="23" cy="-176" r="14" fill="url(#gFab)" stroke="#ffcf9e" stroke-width="1"/><circle cx="23" cy="-176" r="8.68" fill="none" stroke="#ffcf9e" stroke-opacity="0.35" stroke-width="1"/><circle cx="23" cy="-176" r="4.2" fill="url(#gSteel)" stroke="#9fb1c6" stroke-width="1"/><circle cx="-4" cy="-148" r="14" fill="url(#gFab)" stroke="#ffcf9e" stroke-width="1"/><circle cx="-4" cy="-148" r="8.68" fill="none" stroke="#ffcf9e" stroke-opacity="0.35" stroke-width="1"/><circle cx="-4" cy="-148" r="4.2" fill="url(#gSteel)" stroke="#9fb1c6" stroke-width="1"/><rect x="-58.5" y="-100" width="117" height="12" rx="1.5" fill="url(#gSteel)" stroke="#9fb1c6" stroke-width="1"/><circle cx="-48.5" cy="-82" r="5" fill="url(#gFab)" stroke="#ffcf9e" stroke-width="0.9"/><circle cx="-48.5" cy="-82" r="1.4000000000000001" fill="#2a333e"/><circle cx="-34.5" cy="-76" r="5" fill="url(#gFab)" stroke="#ffcf9e" stroke-width="0.9"/><circle cx="-34.5" cy="-76" r="1.4000000000000001" fill="#2a333e"/><circle cx="-24.5" cy="-88" r="5" fill="url(#gFab)" stroke="#ffcf9e" stroke-width="0.9"/><circle cx="-24.5" cy="-88" r="1.4000000000000001" fill="#2a333e"/><rect x="-54.5" y="-22" width="109" height="16" rx="3" fill="url(#gGreen)" stroke="#2f9e5f" stroke-width="1"/><rect x="-48.5" y="-8" width="14" height="8" rx="1.5" fill="url(#gDark)" stroke="#12171d" stroke-width="1"/><rect x="34.5" y="-8" width="14" height="8" rx="1.5" fill="url(#gDark)" stroke="#12171d" stroke-width="1"/></g><circle cx="240" cy="578" r="6" fill="url(#gFab)" stroke="#ffcf9e" stroke-width="0.9"/><circle cx="240" cy="578" r="1.6800000000000002" fill="#2a333e"/><circle cx="296" cy="580" r="6" fill="url(#gFab)" stroke="#ffcf9e" stroke-width="0.9"/><circle cx="296" cy="580" r="1.6800000000000002" fill="#2a333e"/><circle cx="520" cy="450" r="6" fill="url(#gFab)" stroke="#ffcf9e" stroke-width="0.9"/><circle cx="520" cy="450" r="1.6800000000000002" fill="#2a333e"/><circle cx="522" cy="578" r="6" fill="url(#gFab)" stroke="#ffcf9e" stroke-width="0.9"/><circle cx="522" cy="578" r="1.6800000000000002" fill="#2a333e"/><circle cx="700" cy="578" r="5" fill="url(#gFab)" stroke="#ffcf9e" stroke-width="0.9"/><circle cx="700" cy="578" r="1.4000000000000001" fill="#2a333e"/><line x1="30" y1="578" x2="71" y2="578" stroke="#e6edf5" stroke-width="2.5" stroke-linecap="round"/><polygon points="80,578 67,572.5 67,583.5" fill="#e6edf5"/><text x="8" y="526" font-family="Segoe UI, Noto Sans, Arial, sans-serif" font-size="15" font-weight="600" fill="#e6edf5" text-anchor="start">Fiber from</text><text x="8" y="546" font-family="Segoe UI, Noto Sans, Arial, sans-serif" font-size="15" font-weight="600" fill="#e6edf5" text-anchor="start">Splice Press</text><line x1="838" y1="405" x2="867" y2="405" stroke="#e6edf5" stroke-width="2.5" stroke-linecap="round"/><polygon points="876,405 863,399.5 863,410.5" fill="#e6edf5"/><text x="866" y="372" font-family="Segoe UI, Noto Sans, Arial, sans-serif" font-size="15" font-weight="600" fill="#e6edf5" text-anchor="start">Fiber to</text><text x="866" y="392" font-family="Segoe UI, Noto Sans, Arial, sans-serif" font-size="15" font-weight="600" fill="#e6edf5" text-anchor="start">Oven</text></svg>